<svg xmlns="http://www.w3.org/2000/svg" viewBox="0 0 640 400" font-family="IBM Plex Sans,Arial,sans-serif" font-size="12"><defs><pattern id="g" width="20" height="20" patternUnits="userSpaceOnUse"><path d="M20 0H0V20" fill="none" stroke="#9CC3EA" stroke-opacity=".12"/></pattern></defs><rect width="640" height="400" fill="#0B2A4A"/><rect width="640" height="400" fill="url(#g)"/><g fill="none" stroke="#9CC3EA" stroke-width="2" stroke-linecap="round" stroke-linejoin="round"><path d="M70 120h500"/><path d="M70 120v190"/><path d="M190 120v70"/><circle cx="190" cy="198" r="8"/><path d="M176 214h28"/><path d="M172 232l-6 12M190 234v14M208 232l6 12" stroke-dasharray="3 5"/><path d="M320 120v70"/><circle cx="320" cy="198" r="8"/><path d="M306 214h28"/><path d="M302 232l-6 12M320 234v14M338 232l6 12" stroke-dasharray="3 5"/><path d="M450 120v70"/><circle cx="450" cy="198" r="8"/><path d="M436 214h28"/><path d="M432 232l-6 12M450 234v14M468 232l6 12" stroke-dasharray="3 5"/><circle cx="70" cy="330" r="16"/><path d="M58 330h24M70 318v24"/><text x="320" y="100" fill="#CFE2F5" stroke="none" text-anchor="middle">Sprinkler main</text><text x="320" y="375" fill="#CFE2F5" stroke="none" text-anchor="middle">Hydrant, detection and sprinkler layout</text></g></svg>